<?xml version="1.0" encoding="iso-8859-1"?>
<!-- Uploaded to: SVG Repo, www.svgrepo.com, Generator: SVG Repo Mixer Tools -->
<svg fill="#000000" height="800px" width="800px" version="1.1" id="Layer_1" xmlns="http://www.w3.org/2000/svg" xmlns:xlink="http://www.w3.org/1999/xlink" 
	 viewBox="0 0 508 508" xml:space="preserve">
<g>
	<g>
		<path d="M378.756,0h-249.58C57.948,0,0,57.964,0,129.212v249.572C0,450.036,57.948,508,129.176,508h249.58
			C450.02,508,508,450.036,508,378.788V129.212C508,57.964,450.02,0,378.756,0z M500,378.788
			c0,66.84-54.392,121.216-121.244,121.216h-249.58C62.36,500.004,8,445.628,8,378.788V129.212C8,62.376,62.36,8,129.176,8h249.58
			C445.612,8,500,62.376,500,129.212V378.788z"/>
	</g>
</g>
<g>
	<g>
		<path d="M480.192,253.968c-2.208,0-4,1.788-4,4v112.016c0,57.572-48.632,106.208-106.2,106.208H138.004
			c-57.564,0-106.196-48.636-106.196-106.208V138c0-57.564,48.632-106.192,106.196-106.192H369.08c2.208,0,4-1.788,4-4
			c0-2.212-1.792-4-4-4H138.004C76.104,23.808,23.808,76.1,23.808,138v231.984c0,61.908,52.296,114.208,114.196,114.208h231.988
			c61.904,0,114.2-52.3,114.2-114.208V257.968C484.192,255.756,482.4,253.968,480.192,253.968z"/>
	</g>
</g>
<g>
	<g>
		<path d="M449.808,58.184C428.92,37.3,395.48,23.808,364.616,23.808c-2.208,0-4,1.788-4,4c0,2.212,1.792,4,4,4
			c28.412,0,60.372,12.872,79.536,32.032c0.78,0.78,1.804,1.172,2.828,1.172s2.048-0.392,2.828-1.172
			C451.372,62.276,451.372,59.748,449.808,58.184z"/>
	</g>
</g>
<g>
	<g>
		<path d="M480.192,166.668c-2.208,0-4,1.788-4,4v59.524c0,2.212,1.792,4,4,4s4-1.788,4-4v-59.524
			C484.192,168.456,482.4,166.668,480.192,166.668z"/>
	</g>
</g>
<g>
	<g>
		<path d="M167.52,236.108c-5.704-10.472-16.596-16.976-28.42-16.976c-17.908,0-32.476,14.764-32.476,32.912
			c0,18.14,14.568,32.896,32.476,32.896c3.208,0,6.416-0.484,9.532-1.444c1.66-0.508,2.8-2.02,2.828-3.756
			c0.032-1.732-1.06-3.284-2.696-3.848l-13.208-4.552c-8.764-4.956-12.024-16.2-7.256-25.224c3.22-6.088,9.436-9.868,16.22-9.868
			c3.032,0,5.932,0.748,8.62,2.216c0.2,0.104,0.404,0.196,0.62,0.272l8.952,3.072c1.56,0.532,3.288,0.056,4.352-1.208
			C168.128,239.344,168.312,237.556,167.52,236.108z M121.224,242.384c-5.04,9.544-3.756,20.836,2.364,28.908
			c-5.468-4.568-8.964-11.496-8.964-19.244c0-13.736,10.98-24.912,24.476-24.912c2.592,0,5.128,0.42,7.524,1.204
			C136.208,227.476,126.168,233.04,121.224,242.384z"/>
	</g>
</g>
<g>
	<g>
		<path d="M287.176,273.24c-2.56,0-5.184,0.312-7.812,0.928c-1.736,0.408-2.992,1.916-3.08,3.692
			c-0.088,1.78,1.008,3.404,2.692,3.984l16.852,5.808c8.752,4.948,12.008,16.188,7.248,25.22c-3.212,6.088-9.424,9.872-16.212,9.872
			c-2.992,0-5.984-0.772-8.648-2.22c-0.196-0.108-0.4-0.196-0.612-0.268l-18.536-6.376c-1.428-0.496-2.996-0.136-4.08,0.904
			c-1.08,1.048-1.484,2.612-1.048,4.048c4.532,14.856,17.892,24.84,33.24,24.84c19.156,0,34.744-15.8,34.744-35.22
			C321.924,289.036,306.336,273.24,287.176,273.24z M287.176,335.672c-8.748,0-16.66-4.228-21.592-11.088l9.112,3.132
			c3.752,1.98,7.956,3.028,12.168,3.028c9.764,0,18.688-5.416,23.288-14.136c2.432-4.608,3.388-9.624,3.04-14.488
			c0.48,2.032,0.732,4.152,0.732,6.332C313.924,323.46,301.924,335.672,287.176,335.672z"/>
	</g>
</g>
<g>
	<g>
		<path d="M357.716,160.056c-30.904,0-56.048,25.476-56.048,56.788c0,0.592,0.04,1.188,0.084,1.776v0.004l-11.424,35.236
			c-11.172,0.9-21.6,5.5-29.836,13.172l-38.332-13.2c-2.096-0.728-4.364,0.388-5.084,2.48c-0.72,2.088,0.392,4.364,2.48,5.084
			l40.668,14.004c1.46,0.512,3.092,0.116,4.172-0.996c7.692-7.932,17.984-12.44,28.984-12.692c1.7-0.036,3.188-1.148,3.712-2.764
			l12.508-38.584c0.148-0.464,0.212-0.952,0.188-1.44l-0.056-0.884c-0.032-0.4-0.064-0.796-0.064-1.196
			c0-26.9,21.556-48.788,48.048-48.788c26.476,0,48.012,21.884,48.012,48.788c0,20.744-12.988,39.264-32.316,46.08
			c-0.472,0.168-0.912,0.42-1.292,0.752l-34.94,30.344c-1.028,0.892-1.532,2.256-1.332,3.608c0.396,2.648,0.58,4.816,0.58,6.812
			c0,23.592-18.876,42.788-42.084,42.788c-19.792,0-36.664-13.696-41.032-33.304c-0.3-1.356-1.284-2.46-2.6-2.912l-86.424-29.772
			c-1.272-0.444-2.676-0.212-3.748,0.612c-6.44,4.968-14.08,7.592-22.092,7.592c-20.228,0-36.684-16.724-36.684-37.284
			s16.456-37.288,36.684-37.288c17.156,0,31.84,11.876,35.704,28.876c0.488,2.152,2.632,3.492,4.788,3.016
			c2.152-0.492,3.504-2.636,3.012-4.788c-4.696-20.668-22.588-35.1-43.504-35.1c-24.64,0-44.684,20.316-44.684,45.288
			c0,24.968,20.044,45.284,44.684,45.284c9.072,0,17.744-2.744,25.216-7.96l82.384,28.38c5.928,22.116,25.48,37.364,48.3,37.364
			c27.616,0,50.084-22.788,50.076-50.792c0-1.8-0.12-3.68-0.368-5.796l32.748-28.44c22.12-8.144,36.924-29.488,36.924-53.36
			C413.728,185.532,388.6,160.056,357.716,160.056z"/>
	</g>
</g>
<g>
	<g>
		<g>
			<path d="M357.516,183.872c-18.12,0-32.864,14.944-32.864,33.312c0,18.364,14.744,33.304,32.864,33.304
				s32.864-14.94,32.864-33.304C390.38,198.816,375.636,183.872,357.516,183.872z M357.516,242.488
				c-13.708,0-24.864-11.352-24.864-25.304c0-13.956,11.156-25.312,24.864-25.312s24.864,11.356,24.864,25.312
				C382.38,231.136,371.224,242.488,357.516,242.488z"/>
			<path d="M357.532,171.952c-24.476,0-44.388,20.196-44.388,45.016c0,24.812,19.912,45,44.388,45c24.496,0,44.424-20.188,44.424-45
				C401.956,192.148,382.028,171.952,357.532,171.952z M357.532,253.968c-20.064,0-36.388-16.596-36.388-37
				c0-20.412,16.324-37.016,36.388-37.016c20.084,0,36.424,16.608,36.424,37.016C393.956,237.372,377.616,253.968,357.532,253.968z"
				/>
		</g>
	</g>
</g>
</svg>